<svg viewBox="0 0 920 420" xmlns="http://www.w3.org/2000/svg" font-family="ui-sans-serif,system-ui,sans-serif"><rect width="100%" height="100%" fill="#0f1419"/><text x="60" y="28" fill="#e6e6e6" font-size="18" font-weight="600">Cost Sweep — obi</text><text x="60" y="46" fill="#8b98a5" font-size="12">best cost_hurdle_k=0.00 (NetSharpe=0.000)  •  break-even: none in range</text><rect x="60" y="56" width="398" height="316" fill="#11161c" stroke="#2a323c" stroke-width="1"/><text x="259" y="406" fill="#8b98a5" font-size="11" text-anchor="middle">transaction-cost (bps)</text><text x="18" y="214" fill="#8b98a5" font-size="11" text-anchor="middle" transform="rotate(-90 18 214)">Net Sharpe</text><circle cx="60.0" cy="214.0" r="2.5" fill="#4ea1ff"/><circle cx="99.8" cy="214.0" r="2.5" fill="#4ea1ff"/><circle cx="139.6" cy="214.0" r="2.5" fill="#4ea1ff"/><circle cx="179.4" cy="214.0" r="2.5" fill="#4ea1ff"/><circle cx="219.2" cy="214.0" r="2.5" fill="#4ea1ff"/><circle cx="259.0" cy="214.0" r="2.5" fill="#4ea1ff"/><circle cx="298.8" cy="214.0" r="2.5" fill="#4ea1ff"/><circle cx="338.6" cy="214.0" r="2.5" fill="#4ea1ff"/><circle cx="378.4" cy="214.0" r="2.5" fill="#4ea1ff"/><circle cx="418.2" cy="214.0" r="2.5" fill="#4ea1ff"/><circle cx="458.0" cy="214.0" r="2.5" fill="#4ea1ff"/><polyline points="60.0,214.0 99.8,214.0 139.6,214.0 179.4,214.0 219.2,214.0 259.0,214.0 298.8,214.0 338.6,214.0 378.4,214.0 418.2,214.0 458.0,214.0" fill="none" stroke="#4ea1ff" stroke-width="1.8"/><rect x="68" y="61" width="10" height="10" fill="#4ea1ff"/><text x="82" y="70" fill="#c8d0d8" font-size="11">K=0.00</text><circle cx="60.0" cy="214.0" r="2.5" fill="#ffb24e"/><circle cx="99.8" cy="214.0" r="2.5" fill="#ffb24e"/><circle cx="139.6" cy="214.0" r="2.5" fill="#ffb24e"/><circle cx="179.4" cy="214.0" r="2.5" fill="#ffb24e"/><circle cx="219.2" cy="214.0" r="2.5" fill="#ffb24e"/><circle cx="259.0" cy="214.0" r="2.5" fill="#ffb24e"/><circle cx="298.8" cy="214.0" r="2.5" fill="#ffb24e"/><circle cx="338.6" cy="214.0" r="2.5" fill="#ffb24e"/><circle cx="378.4" cy="214.0" r="2.5" fill="#ffb24e"/><circle cx="418.2" cy="214.0" r="2.5" fill="#ffb24e"/><circle cx="458.0" cy="214.0" r="2.5" fill="#ffb24e"/><polyline points="60.0,214.0 99.8,214.0 139.6,214.0 179.4,214.0 219.2,214.0 259.0,214.0 298.8,214.0 338.6,214.0 378.4,214.0 418.2,214.0 458.0,214.0" fill="none" stroke="#ffb24e" stroke-width="1.8"/><rect x="68" y="77" width="10" height="10" fill="#ffb24e"/><text x="82" y="86" fill="#c8d0d8" font-size="11">K=1.00</text><circle cx="60.0" cy="214.0" r="2.5" fill="#4eff9b"/><circle cx="99.8" cy="214.0" r="2.5" fill="#4eff9b"/><circle cx="139.6" cy="214.0" r="2.5" fill="#4eff9b"/><circle cx="179.4" cy="214.0" r="2.5" fill="#4eff9b"/><circle cx="219.2" cy="214.0" r="2.5" fill="#4eff9b"/><circle cx="259.0" cy="214.0" r="2.5" fill="#4eff9b"/><circle cx="298.8" cy="214.0" r="2.5" fill="#4eff9b"/><circle cx="338.6" cy="214.0" r="2.5" fill="#4eff9b"/><circle cx="378.4" cy="214.0" r="2.5" fill="#4eff9b"/><circle cx="418.2" cy="214.0" r="2.5" fill="#4eff9b"/><circle cx="458.0" cy="214.0" r="2.5" fill="#4eff9b"/><polyline points="60.0,214.0 99.8,214.0 139.6,214.0 179.4,214.0 219.2,214.0 259.0,214.0 298.8,214.0 338.6,214.0 378.4,214.0 418.2,214.0 458.0,214.0" fill="none" stroke="#4eff9b" stroke-width="1.8"/><rect x="68" y="93" width="10" height="10" fill="#4eff9b"/><text x="82" y="102" fill="#c8d0d8" font-size="11">K=2.00</text><line x1="60" y1="214.0" x2="458" y2="214.0" stroke="#3a4552" stroke-width="1" stroke-dasharray="3,3"/><text x="62" y="386" fill="#5d6b78" font-size="10">0.00</text><text x="456" y="386" fill="#5d6b78" font-size="10" text-anchor="end">20.00</text><text x="62" y="66" fill="#5d6b78" font-size="10">1.00</text><text x="62" y="370" fill="#5d6b78" font-size="10">-1.00</text><rect x="498" y="56" width="398" height="316" fill="#11161c" stroke="#2a323c" stroke-width="1"/><text x="697" y="406" fill="#8b98a5" font-size="11" text-anchor="middle">Net Sharpe</text><text x="456" y="214" fill="#8b98a5" font-size="11" text-anchor="middle" transform="rotate(-90 456 214)">turnover (x)</text><circle cx="697.0" cy="56.0" r="3" fill="#4ea1ff" fill-opacity="0.85"/><circle cx="697.0" cy="56.0" r="3" fill="#4ea1ff" fill-opacity="0.85"/><circle cx="697.0" cy="56.0" r="3" fill="#4ea1ff" fill-opacity="0.85"/><circle cx="697.0" cy="56.0" r="3" fill="#4ea1ff" fill-opacity="0.85"/><circle cx="697.0" cy="56.0" r="3" fill="#4ea1ff" fill-opacity="0.85"/><circle cx="697.0" cy="56.0" r="3" fill="#4ea1ff" fill-opacity="0.85"/><circle cx="697.0" cy="56.0" r="3" fill="#4ea1ff" fill-opacity="0.85"/><circle cx="697.0" cy="56.0" r="3" fill="#4ea1ff" fill-opacity="0.85"/><circle cx="697.0" cy="56.0" r="3" fill="#4ea1ff" fill-opacity="0.85"/><circle cx="697.0" cy="56.0" r="3" fill="#4ea1ff" fill-opacity="0.85"/><circle cx="697.0" cy="56.0" r="3" fill="#4ea1ff" fill-opacity="0.85"/><circle cx="697.0" cy="182.8" r="3" fill="#ffb24e" fill-opacity="0.85"/><circle cx="697.0" cy="255.6" r="3" fill="#ffb24e" fill-opacity="0.85"/><circle cx="697.0" cy="308.8" r="3" fill="#ffb24e" fill-opacity="0.85"/><circle cx="697.0" cy="345.4" r="3" fill="#ffb24e" fill-opacity="0.85"/><circle cx="697.0" cy="372.0" r="3" fill="#ffb24e" fill-opacity="0.85"/><circle cx="697.0" cy="372.0" r="3" fill="#ffb24e" fill-opacity="0.85"/><circle cx="697.0" cy="372.0" r="3" fill="#ffb24e" fill-opacity="0.85"/><circle cx="697.0" cy="372.0" r="3" fill="#ffb24e" fill-opacity="0.85"/><circle cx="697.0" cy="372.0" r="3" fill="#ffb24e" fill-opacity="0.85"/><circle cx="697.0" cy="372.0" r="3" fill="#ffb24e" fill-opacity="0.85"/><circle cx="697.0" cy="372.0" r="3" fill="#ffb24e" fill-opacity="0.85"/><circle cx="697.0" cy="255.6" r="3" fill="#4eff9b" fill-opacity="0.85"/><circle cx="697.0" cy="345.4" r="3" fill="#4eff9b" fill-opacity="0.85"/><circle cx="697.0" cy="372.0" r="3" fill="#4eff9b" fill-opacity="0.85"/><circle cx="697.0" cy="372.0" r="3" fill="#4eff9b" fill-opacity="0.85"/><circle cx="697.0" cy="372.0" r="3" fill="#4eff9b" fill-opacity="0.85"/><circle cx="697.0" cy="372.0" r="3" fill="#4eff9b" fill-opacity="0.85"/><circle cx="697.0" cy="372.0" r="3" fill="#4eff9b" fill-opacity="0.85"/><circle cx="697.0" cy="372.0" r="3" fill="#4eff9b" fill-opacity="0.85"/><circle cx="697.0" cy="372.0" r="3" fill="#4eff9b" fill-opacity="0.85"/><circle cx="697.0" cy="372.0" r="3" fill="#4eff9b" fill-opacity="0.85"/><circle cx="697.0" cy="372.0" r="3" fill="#4eff9b" fill-opacity="0.85"/><text x="500" y="386" fill="#5d6b78" font-size="10">-1.00</text><text x="894" y="386" fill="#5d6b78" font-size="10" text-anchor="end">1.00</text><text x="500" y="66" fill="#5d6b78" font-size="10">21.31</text><text x="500" y="370" fill="#5d6b78" font-size="10">0.00</text></svg>